#!OML:ASF F:\VICON\USERDATA\INSTALL\rory3\rory3.ASF
:FULLY-SPECIFIED
:DEGREES
222
root -10.5237 17.6609 14.449 -13.7209 76.9925 -17.8809
lowerback 11.7193 4.49353 5.21957
upperback 0.100246 6.7185 0.260521
thorax -5.87898 3.16196 -3.72763
lowerneck -19.9385 -5.95427 -11.7095
upperneck 29.2297 -6.5562 7.64103
head 13.9834 -2.95985 3.92456
rclavicle -6.42074e-014 3.97569e-015
rhumerus -26.9277 -16.1568 -71.0196
rradius 34.0272
rwrist -1.87251
rhand -16.9699 7.94366
rfingers 7.12502
rthumb 9.26437 -21.8328
lclavicle -6.42074e-014 3.97569e-015
lhumerus -43.6445 19.8362 63.7721
lradius 22.9491
lwrist -16.0458
lhand -16.2446 27.7046
lfingers 7.12502
lthumb 9.96416 57.4488
rfemur 18.8348 -5.00833 23.3631
rtibia 1.30477
rfoot -9.19674 -14.7108
rtoes -17.7876
lfemur -29.437 0.663611 -17.3457
ltibia 16.7393
lfoot -6.44313 3.49002
ltoes -0.500048
223
root -10.388 17.663 14.4517 -13.37 77.0139 -17.6241
lowerback 11.5746 4.74294 5.3151
upperback 0.0598246 7.04066 0.0597816
thorax -5.7732 3.31818 -4.02155
lowerneck -20.0167 -6.12196 -11.3578
upperneck 29.2125 -6.91416 7.62556
head 14.0197 -3.07401 3.78888
rclavicle 2.64011e-014 -1.72943e-014
rhumerus -27.0345 -16.879 -71.0837
rradius 34.5573
rwrist -1.98554
rhand -16.7798 8.12514
rfingers 7.12502
rthumb 9.44777 -21.6431
lclavicle 2.64011e-014 -1.72943e-014
lhumerus -44.0121 20.2972 63.1063
lradius 22.9395
lwrist -17.1444
lhand -13.4498 26.5108
lfingers 7.12502
lthumb 12.6595 56.1072
rfemur 18.3194 -4.70286 23.2422
rtibia 3.019
rfoot -9.75831 -14.9771
rtoes -17.0607
lfemur -28.9985 0.909357 -17.6936
ltibia 16.7774
lfoot -6.31245 3.32812
ltoes -1.08614
224
root -10.2505 17.6722 14.4538 -12.9589 76.9852 -17.3326
lowerback 11.4021 4.88475 5.27229
upperback 0.0080097 7.21101 0.0160974
thorax -5.71402 3.40396 -4.05171
lowerneck -20.171 -6.1572 -11.1926
upperneck 29.2994 -6.96625 7.49238
head 14.0832 -3.0924 3.69679
rclavicle 5.62809e-015 -3.47873e-015
rhumerus -26.9633 -16.9408 -71.2098
rradius 35.0221
rwrist -2.16152
rhand -16.9461 8.15591
rfingers 7.12502
rthumb 9.28739 -21.6195
lclavicle 5.62809e-015 -3.47873e-015
lhumerus -44.3237 20.8311 62.6525
lradius 22.3528
lwrist -17.808
lhand -15.2644 27.7192
lfingers 7.12502
lthumb 10.9097 57.4158
rfemur 18.3874 -4.34597 23.1477
rtibia 3.50388
rfoot -9.70246 -15.3472
rtoes -14.2547
lfemur -28.5913 1.13769 -17.9983
ltibia 16.89
lfoot -6.11715 3.2128
ltoes 0.027187
225
root -10.1101 17.6832 14.4532 -12.3116 76.8505 -16.7913
lowerback 11.2766 4.95506 5.19557
upperback -0.0715469 7.28895 0.018826
thorax -5.73015 3.44204 -4.00917
lowerneck -20.2912 -6.09025 -11.1766
upperneck 29.4071 -6.82573 7.38191
head 14.1333 -3.04261 3.6775
rclavicle -4.23536e-014 -6.06293e-015
rhumerus -26.8711 -16.5381 -71.4395
rradius 35.5374
rwrist -2.32611
rhand -17.2877 8.04158
rfingers 7.12502
rthumb 8.9577 -21.7483
lclavicle -4.23536e-014 -6.06293e-015
lhumerus -44.6142 21.2925 62.2955
lradius 21.3675
lwrist -17.9581
lhand -17.2759 28.7197
lfingers 7.12502
lthumb 8.96907 58.509
rfemur 18.4596 -3.86778 22.9856
rtibia 3.9465
rfoot -9.39359 -15.6578
rtoes -13.0902
lfemur -28.1397 1.62465 -18.4153
ltibia 16.9139
lfoot -5.32672 3.21229
ltoes -0.023386
226
root -9.96289 17.7204 14.4513 -11.1171 76.8735 -15.6753
lowerback 11.1553 4.9869 5.02802
upperback -0.158033 7.29848 -0.0695802
thorax -5.76169 3.44708 -4.0036
lowerneck -20.3844 -6.01166 -11.1092
upperneck 29.5169 -6.69848 7.30007
head 14.1791 -2.98896 3.65935
rclavicle 2.65378e-014 -1.26228e-014
rhumerus -26.8416 -16.1993 -71.734
rradius 36.0481
rwrist -2.29859
rhand -17.4265 8.16118
rfingers 7.12502
rthumb 8.82378 -21.6344
lclavicle 2.65378e-014 -1.26228e-014
lhumerus -44.9537 21.7804 61.8092
lradius 20.4777
lwrist -18.1479
lhand -17.041 28.3347
lfingers 7.12502
lthumb 9.1958 58.1142
rfemur 18.6218 -3.51096 22.6227
rtibia 4.21902
rfoot -8.70381 -15.7849
rtoes -13.8002
lfemur -27.8587 1.32911 -18.6245
ltibia 16.9078
lfoot -4.1939 3.99159
ltoes 4.60034
227
root -9.81439 17.7423 14.4475 -9.29232 77.0414 -13.8906
lowerback 11.0512 5.01312 4.67484
upperback -0.247576 7.27491 -0.203118
thorax -5.82584 3.43937 -3.94151
lowerneck -20.4437 -5.9874 -11.0421
upperneck 29.6182 -6.63911 7.17407
head 14.2207 -2.97124 3.60985
rclavicle 1.43473e-013 1.04362e-014
rhumerus -26.8594 -15.9764 -71.983
rradius 36.4932
rwrist -2.18199
rhand -17.2674 8.52007
rfingers 7.12502
rthumb 8.97731 -21.2689
lclavicle 1.43473e-013 1.04362e-014
lhumerus -45.4744 22.0596 61.4815
lradius 20.1065
lwrist -18.3275
lhand -16.9335 28.0484
lfingers 7.12502
lthumb 9.29949 57.8233
rfemur 18.9441 -3.2664 22.0378
rtibia 4.29076
rfoot -8.01354 -15.7292
rtoes -13.5973
lfemur -27.6497 2.0182 -19.5382
ltibia 16.9125
lfoot -3.04742 4.10317
ltoes 2.22771
